<svg xmlns="http://www.w3.org/2000/svg" width="256" height="256" viewBox="0 0 256 256">
  <defs>
    <style>
      .cls-1 {
        fill: #c33700;
        stroke: #7d2300;
      }

      .cls-1, .cls-2 {
        stroke-width: 7px;
        fill-rule: evenodd;
      }

      .cls-2 {
        fill: #333;
        stroke: #333;
      }
    </style>
  </defs>
  <path id="Brick" class="cls-1" d="M17.506,68.2H238.494a10,10,0,0,1,10,10V178.8a10,10,0,0,1-10,10H17.506a10,10,0,0,1-10-10V78.2A10,10,0,0,1,17.506,68.2Z"/>
  <path id="Splash" class="cls-2" d="M118.223,68l120.22,0.2a10.1,10.1,0,0,1,7.113,2.922,9.9,9.9,0,0,1,2.947,7.055q0.249,38.316.5,76.631c-0.732,3.531-1.779,6.259-3.333,6.461-3.466.452-7.14-12.048-15.667-18.267-3.518-2.566-12.448-8-21-6-4.259,1-9.608,6.343-14,5-3.737-1.142-4.266-5.672-8-8-4.27-2.662-10.885-2.85-15,0-6.73,4.661-2.929,14.778-9,19-7.967,5.541-26.3-3.651-26-10,0.225-4.8,11.083-5.652,13-13,1.213-4.65-1.166-10.284-5-13-3.171-2.246-6.724-2.134-9-2-9.32.55-15.683,2.714-19,0-3.637-2.977-4.04-10.642-1-15,1.51-2.165,3.458-2.443,5-5,1.046-1.735,2.23-4.976,1-8-1.155-2.841-3.981-4.093-6-5-5.14-2.31-8.386-4.125-8.843-6.018-0.579-2.4,1.668-5.23,5.03-7.982h6.036Z"/>
</svg>
